<?xml version="1.0" encoding="UTF-8" standalone="no"?>
<!-- Created with Inkscape (http://www.inkscape.org/) -->

<svg
   version="1.1"
   id="svg3881"
   width="880"
   height="880"
   viewBox="0 0 880 880"
   sodipodi:docname="gold-coins-on-plant-publicdomainvectors.org.svg"
   inkscape:version="1.2 (dc2aedaf03, 2022-05-15)"
   xmlns:inkscape="http://www.inkscape.org/namespaces/inkscape"
   xmlns:sodipodi="http://sodipodi.sourceforge.net/DTD/sodipodi-0.dtd"
   xmlns="http://www.w3.org/2000/svg"
   xmlns:svg="http://www.w3.org/2000/svg">
  <defs
     id="defs3885">
    <clipPath
       clipPathUnits="userSpaceOnUse"
       id="clipPath3897">
      <path
         d="M 0,660 H 660 V 0 H 0 Z"
         id="path3895" />
    </clipPath>
  </defs>
  <sodipodi:namedview
     id="namedview3883"
     pagecolor="#ffffff"
     bordercolor="#000000"
     borderopacity="0.25"
     inkscape:showpageshadow="2"
     inkscape:pageopacity="0.0"
     inkscape:pagecheckerboard="0"
     inkscape:deskcolor="#d1d1d1"
     showgrid="false"
     inkscape:zoom="0.95113636"
     inkscape:cx="440.52569"
     inkscape:cy="440.52569"
     inkscape:window-width="1920"
     inkscape:window-height="1017"
     inkscape:window-x="-8"
     inkscape:window-y="-8"
     inkscape:window-maximized="1"
     inkscape:current-layer="g3889">
    <inkscape:page
       x="0"
       y="0"
       id="page3887"
       width="880"
       height="880" />
  </sodipodi:namedview>
  <g
     id="g3889"
     inkscape:groupmode="layer"
     inkscape:label="Page 1"
     transform="matrix(1.3333333,0,0,-1.3333333,0,880)">
    <g
       id="g3891">
      <g
         id="g3893"
         clip-path="url(#clipPath3897)">
        <g
           id="g3899"
           transform="translate(372.7139,80.7041)">
          <path
             d="m 0,0 c 121.32,0 220.27,24.473 220.27,54.479 0,30.004 -98.95,54.477 -220.27,54.477 -121.32,0 -220.271,-24.473 -220.271,-54.477 C -220.271,24.473 -121.32,0 0,0"
             style="fill:#e8e8e7;fill-opacity:1;fill-rule:evenodd;stroke:none"
             id="path3901" />
        </g>
        <g
           id="g3903"
           transform="translate(255.1572,398.0068)">
          <path
             d="M 0,0 C 8.308,63.306 -32.213,65.56 -95.193,39.732 -63.463,26.488 -31.73,13.245 0,0"
             style="fill:#9ac421;fill-opacity:1;fill-rule:evenodd;stroke:none"
             id="path3905" />
        </g>
        <g
           id="g3907"
           transform="translate(293.5254,343.8096)">
          <path
             d="m 0,0 c -8.994,24.603 -23.739,38.563 -42.804,44.524 -67.323,2.769 -163.407,25.929 -170.445,81.737 46.125,-27.067 105.005,53.952 174.881,-72.064 C -18.836,49.423 -3.521,37.185 6.922,16.326 4.615,10.884 2.309,5.441 0,0"
             style="fill:#769a2a;fill-opacity:1;fill-rule:evenodd;stroke:none"
             id="path3909" />
        </g>
        <g
           id="g3911"
           transform="translate(192.5508,192.1943)">
          <path
             d="M 0,0 23.479,-29.695 C 46.716,-59.085 202.051,63.768 178.83,93.136 l -23.478,29.695 -0.005,-0.01 c 3.652,-4.147 0.647,-13.61 -9.958,-27.672 C 122.785,65.186 74.224,25.693 36.924,6.941 16.543,-3.306 3.742,-5.239 0.008,0.002 Z"
             style="fill:#f9b00b;fill-opacity:1;fill-rule:evenodd;stroke:none"
             id="path3913" />
        </g>
        <g
           id="g3915"
           transform="translate(350.3887,299.3477)">
          <path
             d="m 0,0 19.019,-24.052 c 0.338,1.87 0.358,3.615 -0.066,5.136 L 1.406,3.276 C 0.993,2.181 0.518,1.084 0,0 m -5.88,-9.929 c 0.855,1.239 1.744,2.581 2.616,3.995 l 19.909,-25.181 c -0.683,-1.489 -1.458,-2.976 -2.276,-4.425 z m -7.541,-9.935 c 1.289,1.573 2.551,3.164 3.776,4.771 l 20.571,-26.016 c -1.319,-1.974 -2.573,-3.706 -3.569,-5.036 z m -9.247,-10.515 21.069,-26.646 c 1.657,1.858 3.277,3.748 4.848,5.663 l -20.934,26.475 c -1.628,-1.856 -3.293,-3.686 -4.983,-5.492 m -11.39,-11.496 21.252,-26.881 c 2.078,2.045 4.137,4.129 6.159,6.253 l -21.17,26.777 c -1.805,-1.829 -3.628,-3.628 -5.459,-5.395 z m -14.324,-13.062 c 2.55,2.21 5.071,4.451 7.562,6.726 l 21.313,-26.956 c -2.469,-2.299 -4.976,-4.56 -7.514,-6.785 z M -86.83,-84.59 c 2.787,1.899 5.55,3.835 8.288,5.806 l 21.362,-27.017 c -2.753,-1.958 -5.529,-3.876 -8.334,-5.75 z m -15.148,-9.769 c 2.499,1.516 4.975,3.069 7.424,4.65 l 21.256,-26.883 c -2.469,-1.55 -4.972,-3.071 -7.504,-4.551 z m -12.896,-7.349 c 2.182,1.157 4.348,2.353 6.496,3.579 l 21.082,-26.663 c -2.19,-1.183 -4.401,-2.322 -6.628,-3.412 z m -11.357,-5.597 20.56,-26.004 c 2.226,0.829 4.199,1.65 5.722,2.312 l -20.787,26.29 c -1.548,-0.765 -3.416,-1.663 -5.495,-2.598 m -10.393,-4.083 19.908,-25.178 c 1.607,0.32 3.234,0.73 4.83,1.192 l -20.241,25.599 c -1.462,-0.566 -2.972,-1.113 -4.497,-1.613 m -10.055,-2.402 c 1.152,0.147 2.329,0.353 3.516,0.605 l 19.026,-24.061 c -1.898,0.1 -3.602,0.485 -4.985,1.248 z m 78.951,43.059 21.387,-27.053 c 1.523,1.169 3.033,2.347 4.537,3.535 1.501,1.188 2.995,2.387 4.483,3.597 l -21.39,27.05 c -1.877,-1.523 -3.766,-3.031 -5.664,-4.521 -1.113,-0.874 -2.231,-1.744 -3.353,-2.608"
             style="fill:#df8c16;fill-opacity:1;fill-rule:evenodd;stroke:none"
             id="path3917" />
        </g>
        <g
           id="g3919"
           transform="translate(202.8604,219.4355)">
          <path
             d="m 0,0 c -22.602,-29.964 -10.687,-39.054 26.613,-20.3 37.301,18.752 85.862,58.244 108.466,88.208 22.602,29.964 10.688,39.054 -26.613,20.302 C 71.165,69.458 22.604,29.965 0,0"
             style="fill:#fbca07;fill-opacity:1;fill-rule:evenodd;stroke:none"
             id="path3921" />
        </g>
        <g
           id="g3923"
           transform="translate(322.9131,281.7031)">
          <path
             d="m 0,0 -6.885,-9.129 -12.183,-6.125 c -9.889,-10.987 -22.317,-20.332 -33.562,-25.986 -22.374,-11.248 -2.698,14.066 -13.827,8.472 -5.272,-2.65 -9.341,-6.216 -12.75,-10.732 -2.979,-3.953 -3.189,-5.868 -1.878,-7.314 l -15.094,-11.909 c -2.032,1.255 -2.516,3.7 0.971,9.192 l -11.829,-5.948 6.885,9.128 12.065,6.065 c 8.899,9.964 20.979,19.426 32.46,25.198 21.084,10.601 2.109,-14.359 14.175,-8.295 5.389,2.71 9.858,6.416 13.834,11.686 3.406,4.517 4.186,7.479 3.354,10.041 L -8.123,6.195 c 1.699,-1.89 -0.223,-6.946 -3.591,-12.084 z"
             style="fill:#df8c16;fill-opacity:1;fill-rule:evenodd;stroke:none"
             id="path3925" />
        </g>
        <g
           id="g3927"
           transform="translate(371.6143,535.5127)">
          <path
             d="m 0,0 c 0.702,38.822 -24.308,67.544 -53.203,66.726 -24.34,-0.694 -65.771,-13.438 -62.331,-76.569 -15.047,67.577 33.525,93.233 64.451,95.792 40.565,3.36 84.862,-35.367 83.654,-82.969 -2.131,-83.889 -141.98,-140.831 -49.076,-336.885 -8.584,-3.574 -37.446,-6.326 -46.03,-9.901 C -146.738,-117.965 -1.401,-77.529 0,0"
             style="fill:#769a2a;fill-opacity:1;fill-rule:evenodd;stroke:none"
             id="path3929" />
        </g>
        <g
           id="g3931"
           transform="translate(364.2803,570.8213)">
          <path
             d="m 0,0 0.003,0.002 c -18.256,68.187 -121.806,40.119 -108.203,-45.153 -3.438,63.13 37.991,75.875 62.331,76.568 C -26.792,31.957 -9.41,19.618 0,0 m 28.552,9.792 c 7.405,-12.382 11.743,-26.787 11.353,-42.12 -2.131,-83.89 -141.98,-140.831 -49.078,-336.886 -4.867,-2.027 -16.256,-3.789 -26.768,-5.587 -1.372,3.781 -2.729,7.569 -4.05,11.368 -5.192,15.399 -9.725,30.161 -13.32,46.03 -4.843,22.695 -7.633,43.197 -6.625,66.591 1.308,21.865 4.439,39.816 11.971,60.631 18.182,50.226 60.119,94.045 73.609,134.698 8.903,26.83 8.721,46.482 2.908,65.275"
             style="fill:#5b7728;fill-opacity:1;fill-rule:evenodd;stroke:none"
             id="path3933" />
        </g>
        <g
           id="g3935"
           transform="translate(378.4609,183.5957)">
          <path
             d="m 0,0 v -37.856 c 0,-37.465 -198.045,-37.44 -198.045,0 V 0 l 0.009,-0.004 c -0.292,-5.519 7.935,-11.08 24.976,-15.53 36.315,-9.487 98.901,-10.348 139.793,-1.923 22.339,4.603 33.581,11.025 33.26,17.453 z"
             style="fill:#f39c0f;fill-opacity:1;fill-rule:evenodd;stroke:none"
             id="path3937" />
        </g>
        <g
           id="g3939"
           transform="translate(188.1885,169.7539)">
          <path
             d="m 0,0 c -1.078,0.531 -2.13,1.096 -3.134,1.699 v -28.291 c 0.609,-1.455 1.709,-2.813 3.134,-4.069 z M 10.772,-4.141 C 9.334,-3.7 7.802,-3.197 6.243,-2.63 v -32.099 c 1.459,-0.745 2.991,-1.432 4.529,-2.06 z M 22.85,-7.258 c -1.989,0.435 -3.963,0.902 -5.922,1.403 v -33.167 c 2.26,-0.732 4.317,-1.313 5.922,-1.737 z M 36.624,-9.77 c -2.445,0.369 -4.886,0.773 -7.316,1.218 v -33.753 c 2.423,-0.526 4.865,-1.003 7.316,-1.434 z m 16.066,-1.954 -1.081,0.107 c -2.533,0.253 -5.077,0.532 -7.629,0.846 v -34.134 c 2.906,-0.411 5.813,-0.771 8.71,-1.085 z m 19.336,-1.362 c -3.371,0.151 -6.739,0.347 -10.101,0.586 v -34.364 c 3.36,-0.271 6.73,-0.49 10.101,-0.66 z m 48.553,0.588 c -3.365,-0.239 -6.733,-0.435 -10.103,-0.588 v -34.441 c 3.372,0.17 6.74,0.389 10.103,0.659 z m 17.942,1.73 c -2.902,-0.361 -5.807,-0.677 -8.71,-0.957 v -34.271 c 2.897,0.316 5.805,0.673 8.71,1.085 z m 14.672,2.234 c -2.428,-0.446 -4.869,-0.852 -7.315,-1.223 v -33.99 c 2.451,0.432 4.893,0.908 7.315,1.436 z m 12.38,2.654 c -2.21,-0.557 -4.234,-1.012 -5.922,-1.372 v -33.515 c 1.605,0.424 3.663,1.006 5.922,1.737 z m 10.685,3.242 c -1.508,-0.553 -3.029,-1.06 -4.529,-1.524 v -32.635 c 1.539,0.628 3.07,1.316 4.529,2.062 z m 9.378,4.353 C 184.64,1.114 183.59,0.546 182.501,0.009 v -30.675 c 1.426,1.257 2.525,2.614 3.135,4.07 z M 97,-13.475 v -34.487 c -1.918,-0.028 -3.836,-0.04 -5.751,-0.04 -1.915,0 -3.83,0.014 -5.745,0.042 v 34.483 c 2.416,-0.03 4.832,-0.041 7.248,-0.033 1.414,0.005 2.831,0.017 4.248,0.035"
             style="fill:#c87e1b;fill-opacity:1;fill-rule:evenodd;stroke:none"
             id="path3941" />
        </g>
        <g
           id="g3943"
           transform="translate(353.4775,198.5693)">
          <path
             d="m 0,0 c 36.315,-9.485 32.605,-24.006 -8.284,-32.431 -40.892,-8.424 -103.478,-7.564 -139.793,1.923 -36.314,9.486 -32.605,24.006 8.285,32.431 C -98.902,10.347 -36.314,9.485 0,0"
             style="fill:#f9b00b;fill-opacity:1;fill-rule:evenodd;stroke:none"
             id="path3945" />
        </g>
        <g
           id="g3947"
           transform="translate(220.6875,172.9541)">
          <path
             d="m 0,0 11.062,-2.889 13.354,2.751 c 14.57,-2.486 30.118,-2.107 42.444,0.433 24.528,5.053 -6.607,12.706 5.591,15.22 5.78,1.19 11.185,0.919 16.658,-0.512 4.79,-1.252 6.144,-2.625 6.01,-4.57 l 19.226,0.018 c 0.818,2.246 -0.32,4.463 -6.462,6.608 l 12.969,2.672 -11.062,2.89 -13.226,-2.726 C 83.404,22.194 68.059,22.123 55.474,19.529 32.359,14.768 62.724,6.956 49.497,4.23 43.59,3.014 37.785,3.15 31.399,4.818 25.926,6.247 23.476,8.088 22.54,10.613 L 2.527,9.9 C 2.367,7.363 7.012,4.59 12.84,2.645 Z"
             style="fill:#c87e1b;fill-opacity:1;fill-rule:evenodd;stroke:none"
             id="path3949" />
        </g>
        <g
           id="g3951"
           transform="translate(225.9102,569.4512)">
          <path
             d="M 0,0 C 24.587,15.005 56.685,7.236 71.691,-17.353 86.696,-41.941 78.928,-74.04 54.337,-89.045 29.749,-104.052 -2.35,-96.281 -17.354,-71.691 -32.36,-47.104 -24.591,-15.005 0,0"
             style="fill:#fbca07;fill-opacity:1;fill-rule:evenodd;stroke:none"
             id="path3953" />
        </g>
        <g
           id="g3955"
           transform="translate(533.7334,232.4854)">
          <path
             d="m 0,0 -2.308,-37.785 c -2.282,-37.398 -199.958,-25.303 -197.676,12.068 l 2.306,37.785 0.01,-0.005 c -0.63,-5.49 7.243,-11.541 23.981,-17.023 35.669,-11.681 98.087,-16.354 139.415,-10.436 22.581,3.232 34.192,8.957 34.263,15.393 z"
             style="fill:#fbca07;fill-opacity:1;fill-rule:evenodd;stroke:none"
             id="path3957" />
        </g>
        <g
           id="g3959"
           transform="translate(342.9707,230.2656)">
          <path
             d="M 0,0 C -1.044,0.594 -2.061,1.224 -3.025,1.887 L -4.75,-26.352 c 0.521,-1.49 1.535,-2.912 2.883,-4.252 z M 10.499,-4.789 C 9.09,-4.263 7.593,-3.668 6.071,-3.006 L 4.115,-35.045 c 1.411,-0.833 2.898,-1.612 4.395,-2.333 z m 11.865,-3.849 c -1.957,0.554 -3.901,1.142 -5.825,1.761 l -2.02,-33.106 c 2.21,-0.868 4.229,-1.572 5.804,-2.093 z m 13.596,-3.345 c -2.418,0.514 -4.831,1.067 -7.229,1.659 l -2.057,-33.689 c 2.388,-0.673 4.795,-1.298 7.215,-1.879 z m 15.916,-2.931 -1.073,0.173 c -2.511,0.405 -5.034,0.842 -7.562,1.307 l -2.08,-34.07 c 2.875,-0.587 5.754,-1.121 8.628,-1.613 z m 19.219,-2.539 c -3.356,0.359 -6.707,0.759 -10.049,1.202 l -2.094,-34.302 c 3.34,-0.473 6.688,-0.897 10.043,-1.274 z m 48.497,-2.372 c -3.372,-0.033 -6.747,-0.024 -10.12,0.03 l -2.099,-34.377 c 3.376,-0.036 6.752,-0.023 10.125,0.041 z m 18.014,0.633 c -2.919,-0.182 -5.837,-0.321 -8.751,-0.424 l -2.088,-34.206 c 2.911,0.138 5.835,0.319 8.759,0.552 z m 14.781,1.337 c -2.45,-0.297 -4.91,-0.553 -7.377,-0.774 l -2.07,-33.928 c 2.473,0.282 4.939,0.609 7.39,0.987 z m 12.519,1.895 c -2.24,-0.423 -4.287,-0.751 -5.995,-1.009 l -2.042,-33.452 c 1.629,0.327 3.717,0.779 6.018,1.371 z m 10.864,2.586 c -1.54,-0.462 -3.088,-0.875 -4.615,-1.246 l -1.987,-32.575 c 1.574,0.535 3.143,1.127 4.646,1.782 z m 9.625,3.77 c -1.032,-0.537 -2.114,-1.039 -3.234,-1.51 l -1.87,-30.617 c 1.501,1.167 2.682,2.455 3.378,3.872 z m -89.398,-9.757 -2.101,-34.423 c -1.916,0.089 -3.831,0.191 -5.743,0.308 -1.911,0.117 -3.822,0.249 -5.732,0.392 l 2.102,34.422 c 2.411,-0.179 4.822,-0.336 7.232,-0.476 1.413,-0.082 2.826,-0.157 4.242,-0.223"
             style="fill:#f89b0f;fill-opacity:1;fill-rule:evenodd;stroke:none"
             id="path3961" />
        </g>
        <g
           id="g3963"
           transform="translate(509.707,248.9541)">
          <path
             d="m 0,0 c 35.669,-11.683 31.082,-25.948 -10.245,-31.864 -41.328,-5.919 -103.746,-1.245 -139.415,10.435 -35.669,11.682 -31.082,25.948 10.246,31.867 C -98.087,16.353 -35.669,11.683 0,0"
             style="fill:#f9de1c;fill-opacity:1;fill-rule:evenodd;stroke:none"
             id="path3965" />
        </g>
        <g
           id="g3967"
           transform="translate(375.6035,231.4795)">
          <path
             d="m 0,0 10.864,-3.56 13.498,1.935 c 14.393,-3.37 29.934,-3.939 42.393,-2.156 24.789,3.549 -5.82,13.086 6.508,14.85 5.841,0.836 11.219,0.237 16.594,-1.525 4.706,-1.541 5.973,-2.995 5.721,-4.928 L 114.77,3.463 c 0.952,2.193 -0.047,4.473 -6.048,6.989 l 13.108,1.877 -10.865,3.558 -13.368,-1.914 C 84.602,17.069 69.28,17.934 56.561,16.11 33.199,12.767 63.031,3.119 49.664,1.205 43.693,0.351 37.907,0.839 31.634,2.895 26.259,4.655 23.926,6.642 23.145,9.218 L 3.127,9.726 C 2.811,7.203 7.278,4.151 12.978,1.858 Z"
             style="fill:#fab40a;fill-opacity:1;fill-rule:evenodd;stroke:none"
             id="path3969" />
        </g>
        <g
           id="g3971"
           transform="translate(229.7871,563.0967)">
          <path
             d="m 0,0 c 21.08,12.862 48.595,6.203 61.458,-14.875 12.863,-21.08 6.204,-48.597 -14.875,-61.46 -21.08,-12.863 -48.596,-6.204 -61.458,14.876 C -27.738,-40.38 -21.079,-12.865 0,0"
             style="fill:#fab40a;fill-opacity:1;fill-rule:evenodd;stroke:none"
             id="path3973" />
        </g>
        <g
           id="g3975"
           transform="translate(268.2197,495.2432)">
          <path
             d="m 0,0 6.42,3.918 -4.2,6.885 c 5.929,5.616 6.448,12.657 2.571,19.01 -7.717,12.646 -24.869,1.451 -28.708,7.74 -1.816,2.978 -0.863,5.287 2.314,7.226 2.782,1.696 5.519,1.824 9.237,1.093 l 1.505,8.551 c -4.24,1.138 -8.576,1.398 -13.177,-0.592 l -4.08,6.686 -6.42,-3.917 4.16,-6.819 c -5.456,-5.056 -6.548,-11.9 -2.589,-18.386 7.272,-11.917 24.666,-1.12 28.826,-7.938 1.86,-3.044 1.133,-5.578 -2.573,-7.84 -3.178,-1.937 -6.898,-2.391 -11.809,-1.937 L -18.761,4.542 C -13.912,3.594 -8.228,4.701 -4.04,6.62 Z"
             style="fill:#df8c16;fill-opacity:1;fill-rule:evenodd;stroke:none"
             id="path3977" />
        </g>
        <g
           id="g3979"
           transform="translate(297.8545,230.1055)">
          <path
             d="m 0,0 14.763,-34.859 c 14.61,-34.5 -167.764,-111.708 -182.365,-77.233 l -14.763,34.86 0.01,-0.002 c 1.883,-5.196 11.627,-7.108 29.054,-4.561 37.141,5.427 95.107,29.042 129.473,52.746 18.778,12.951 26.624,23.248 23.823,29.041 z"
             style="fill:#f9b00b;fill-opacity:1;fill-rule:evenodd;stroke:none"
             id="path3981" />
        </g>
        <g
           id="g3983"
           transform="translate(128.0449,143.1572)">
          <path
             d="m 0,0 11.958,-28.233 c -1.805,0.601 -3.346,1.422 -4.475,2.523 L -3.55,0.342 C -2.39,0.179 -1.2,0.068 0,0 M 11.532,0.388 C 10.035,0.233 8.431,0.099 6.773,0.014 l 12.518,-29.558 c 1.635,-0.116 3.313,-0.153 4.975,-0.132 z M 23.87,2.229 36.935,-28.62 c -1.643,-0.235 -3.765,-0.503 -6.129,-0.712 L 17.871,1.209 c 1.998,0.304 3.999,0.644 5.999,1.02 M 37.532,5.286 C 35.138,4.672 32.733,4.092 30.322,3.555 l 13.163,-31.081 c 2.436,0.461 4.87,0.973 7.297,1.532 z m 15.557,4.466 13.364,-31.555 c -2.792,-0.838 -5.607,-1.641 -8.444,-2.395 L 44.699,7.233 c 2.469,0.706 4.923,1.441 7.353,2.195 z m 18.339,6.287 c -3.164,-1.175 -6.344,-2.31 -9.534,-3.4 l 13.403,-31.645 c 3.2,1.063 6.388,2.175 9.557,3.333 z m 44.477,19.474 c -3.005,-1.533 -6.029,-3.025 -9.075,-4.48 l 13.432,-31.715 c 3.038,1.472 6.055,2.988 9.047,4.546 z m 15.847,8.591 c -2.531,-1.464 -5.083,-2.888 -7.647,-4.278 L 137.47,8.269 c 2.545,1.42 5.083,2.884 7.596,4.396 z m 12.639,7.78 13.173,-31.104 c -2.025,-1.43 -4.087,-2.822 -6.176,-4.175 l -13.255,31.298 c 2.107,1.296 4.196,2.622 6.258,3.981 m 10.367,7.272 c -1.821,-1.377 -3.506,-2.583 -4.92,-3.573 l 13.07,-30.86 c 1.313,1.015 2.981,2.352 4.777,3.907 z m 8.574,7.152 12.517,-29.557 c -1.054,-1.255 -2.196,-2.485 -3.367,-3.665 l -12.727,30.053 c 1.2,1.011 2.402,2.071 3.577,3.169 m 6.937,7.664 c -0.682,-0.941 -1.43,-1.873 -2.223,-2.793 L 180.01,42.932 c 0.822,1.713 1.306,3.394 1.299,4.971 z M 94.574,25.419 108.022,-6.337 c -1.755,-0.773 -3.514,-1.533 -5.28,-2.28 -1.762,-0.746 -3.53,-1.481 -5.307,-2.202 L 83.987,20.935 c 2.24,0.914 4.468,1.846 6.689,2.795 1.3,0.556 2.6,1.12 3.898,1.689"
             style="fill:#df8c16;fill-opacity:1;fill-rule:evenodd;stroke:none"
             id="path3985" />
        </g>
        <g
           id="g3987"
           transform="translate(269.0088,234.1504)">
          <path
             d="m 0,0 c 37.14,5.426 39.387,-9.391 5.02,-33.094 -34.369,-23.705 -92.334,-47.319 -129.475,-52.746 -37.138,-5.426 -39.385,9.39 -5.017,33.094 C -95.105,-29.041 -37.138,-5.427 0,0"
             style="fill:#fbca07;fill-opacity:1;fill-rule:evenodd;stroke:none"
             id="path3989" />
        </g>
        <g
           id="g3991"
           transform="translate(156.7217,158.7783)">
          <path
             d="m 0,0 11.313,1.653 11.225,7.742 c 14.386,3.392 28.554,9.805 38.914,16.95 20.615,14.219 -11.038,9.124 -0.787,16.195 4.856,3.351 9.94,5.208 15.538,6.026 4.899,0.715 6.679,-0.022 7.318,-1.866 l 17.695,7.515 c -0.122,2.388 -2.034,3.985 -8.528,3.565 l 10.9,7.518 L 92.277,63.646 81.159,55.977 C 68.146,52.961 54.042,46.912 43.465,39.615 24.04,26.218 55.046,30.865 43.929,23.198 38.965,19.774 33.566,17.636 27.034,16.681 21.436,15.863 18.464,16.603 16.616,18.562 l -18.148,-8.46 c 0.841,-2.4 6.198,-3.143 12.324,-2.659 z"
             style="fill:#df8c16;fill-opacity:1;fill-rule:evenodd;stroke:none"
             id="path3993" />
        </g>
        <g
           id="g3995"
           transform="translate(542.292,147.7773)">
          <path
             d="M 0,0 -9.449,-36.657 C -18.8,-72.939 -210.57,-23.484 -201.226,12.772 l 9.45,36.658 0.006,-0.006 c -1.661,-5.272 4.917,-12.709 20.31,-21.273 32.797,-18.251 93.187,-34.705 134.887,-36.753 22.783,-1.117 35.271,2.295 36.564,8.599 z"
             style="fill:#f9b00b;fill-opacity:1;fill-rule:evenodd;stroke:none"
             id="path3997" />
        </g>
        <g
           id="g3999"
           transform="translate(354.5869,181.8643)">
          <path
             d="m 0,0 c -0.913,0.782 -1.791,1.593 -2.611,2.427 l -7.061,-27.396 c 0.227,-1.561 0.952,-3.15 2.02,-4.722 z M 9.397,-6.698 1.249,-38.314 c -1.334,0.994 -2.645,2.041 -3.873,3.126 l 8.013,31.082 c 1.369,-0.938 2.725,-1.807 4.008,-2.592 m 10.918,-6.034 c -1.818,0.916 -3.613,1.863 -5.385,2.836 L 6.651,-42.014 c 2.006,-1.271 3.855,-2.347 5.302,-3.159 z m 12.71,-5.87 -8.478,-32.895 c -2.267,1.029 -4.512,2.101 -6.727,3.217 l 8.425,32.683 c 2.242,-1.039 4.505,-2.038 6.78,-3.005 m 15.071,-5.903 -1.022,0.373 c -2.388,0.878 -4.782,1.783 -7.175,2.724 L 31.38,-54.462 c 2.71,-1.123 5.436,-2.196 8.163,-3.226 z m 18.383,-6.145 c -3.225,0.99 -6.439,2.019 -9.636,3.09 l -8.577,-33.278 c 3.189,-1.101 6.395,-2.152 9.618,-3.161 z m 47.163,-11.549 c -3.318,0.608 -6.628,1.26 -9.93,1.954 l -8.597,-33.353 c 3.308,-0.675 6.625,-1.304 9.948,-1.884 z m 17.806,-2.803 c -2.9,0.376 -5.792,0.794 -8.672,1.248 l -8.554,-33.187 c 2.885,-0.417 5.79,-0.795 8.706,-1.123 z m 14.767,-1.498 -8.431,-32.708 c -2.478,0.094 -4.961,0.242 -7.443,0.435 l 8.483,32.915 c 2.461,-0.251 4.926,-0.468 7.391,-0.642 m 12.65,-0.52 c -2.281,0.012 -4.353,0.078 -6.078,0.15 l -8.363,-32.453 c 1.659,0.009 3.797,0.057 6.167,0.201 z m 11.157,0.473 -8.012,-31.082 c -1.599,-0.357 -3.253,-0.641 -4.901,-0.866 l 8.147,31.602 c 1.566,0.075 3.167,0.187 4.766,0.346 m 10.165,1.874 c -1.113,-0.333 -2.271,-0.621 -3.461,-0.869 l -7.656,-29.704 c 1.695,0.861 3.099,1.901 4.053,3.159 z m -89.622,7.414 -8.608,-33.396 c -1.863,0.453 -3.724,0.918 -5.578,1.396 -1.854,0.478 -3.705,0.97 -5.553,1.476 l 8.606,33.391 c 2.335,-0.633 4.672,-1.247 7.01,-1.841 1.373,-0.349 2.747,-0.691 4.123,-1.026"
             style="fill:#df8c16;fill-opacity:1;fill-rule:evenodd;stroke:none"
             id="path4001" />
        </g>
        <g
           id="g4003"
           transform="translate(521.8359,168.5127)">
          <path
             d="m 0,0 c 32.797,-18.25 25.582,-31.384 -16.117,-29.337 -41.699,2.048 -102.09,18.502 -134.887,36.753 -32.799,18.249 -25.583,31.383 16.116,29.335 C -93.189,34.704 -32.797,18.25 0,0"
             style="fill:#fbca07;fill-opacity:1;fill-rule:evenodd;stroke:none"
             id="path4005" />
        </g>
        <g
           id="g4007"
           transform="translate(386.8555,176.8516)">
          <path
             d="m 0,0 9.99,-5.559 13.618,-0.669 c 13.49,-6.044 28.639,-9.558 41.209,-10.175 25.012,-1.228 -3.227,13.954 9.214,13.342 5.893,-0.289 11.059,-1.901 16.002,-4.652 4.327,-2.406 5.294,-4.075 4.68,-5.925 l 18.621,-4.782 c 1.352,1.971 0.806,4.402 -4.607,8.013 l 13.224,-0.65 -9.99,5.559 -13.487,0.663 C 86.304,0.674 71.426,4.436 58.593,5.065 35.021,6.224 62.475,-8.921 48.986,-8.258 42.963,-7.962 37.377,-6.381 31.608,-3.171 26.665,-0.421 24.753,1.972 24.474,4.65 L 4.919,8.956 C 4.13,6.539 7.935,2.693 13.095,-0.643 Z"
             style="fill:#df8c16;fill-opacity:1;fill-rule:evenodd;stroke:none"
             id="path4009" />
        </g>
        <g
           id="g4011"
           transform="translate(392.7607,434.3789)">
          <path
             d="M 0,0 C 14.869,62.094 53.519,49.715 103.108,3.082 68.738,2.056 34.369,1.027 0,0"
             style="fill:#769a2a;fill-opacity:1;fill-rule:evenodd;stroke:none"
             id="path4013" />
        </g>
        <g
           id="g4015"
           transform="translate(337.5557,397.4746)">
          <path
             d="M 0,0 C 17.196,19.765 35.955,27.532 55.89,26.286 119.755,4.808 217.77,-7.905 244.292,41.699 191.539,32.907 165.506,129.62 55.205,36.904 35.256,39.426 16.578,33.471 -0.629,17.722 -0.419,11.815 -0.21,5.906 0,0"
             style="fill:#5b7728;fill-opacity:1;fill-rule:evenodd;stroke:none"
             id="path4017" />
        </g>
      </g>
    </g>
  </g>
</svg>
